<svg width="425" height="424" viewBox="0 0 425 424" fill="none" xmlns="http://www.w3.org/2000/svg">
<path d="M212.505 0L173.866 38.5119L154.546 57.7728L115.907 96.2847L96.5977 115.546L57.9486 154.047L38.6391 173.318L0 211.83L38.6391 250.342L57.9486 269.603L96.5977 308.115L115.907 327.366L154.546 365.878L193.185 327.366L212.505 308.105L251.144 269.593L212.505 231.081L173.866 269.593L154.546 288.854L135.227 269.603L154.546 250.342L193.185 211.83L154.546 173.318L115.907 211.83L96.5977 231.081L77.2782 211.83L96.5977 192.569L135.227 154.047L154.546 134.797L193.185 96.2847L212.505 77.0337L251.144 38.5119L212.505 0Z" fill="white"/>
<path d="M231.825 96.2847L212.505 115.546L173.866 154.057L212.505 192.569L231.815 211.83L270.454 250.342L309.093 211.83L328.412 192.569L347.732 211.83L328.412 231.081L289.773 269.603L270.454 288.854L231.825 327.376L212.505 346.627L173.866 385.139L212.505 423.661L251.144 385.139L270.454 365.888L309.093 327.376L328.412 308.115L367.051 269.603L386.371 250.342L425 211.83L386.371 173.318L367.051 154.057L328.412 115.546L289.773 154.057L270.454 173.318L251.144 154.057L270.454 134.797L309.093 96.2847L270.454 57.7728L231.825 96.2847Z" fill="white"/>
</svg>
