<svg width="1920" height="1080" viewBox="0 0 1920 1080" fill="none" xmlns="http://www.w3.org/2000/svg">
<g clip-path="url(#clip0_3_2)">
<rect width="1920" height="1080" fill="#00B5C5"/>
<g clip-path="url(#clip1_3_2)">
<path d="M-17.8798 -151.498L-43.3767 -176.995L-81.2116 -139.16L-106.708 -113.663L-81.2116 -88.1658L-68.6912 -75.6226L-43.4451 -50.3994L-43.1714 -50.1257L-5.33658 -87.9606L6.81893 -75.8051L-106.914 37.9276L-81.4168 63.4473L57.6531 -75.6226L57.5619 -75.691L57.7443 -75.8735L20.1603 -113.457L-5.19974 -138.818L-5.33658 -138.977L-43.1714 -101.12L-55.7147 -113.663L-17.8798 -151.498Z" fill="white" fill-opacity="0.1"/>
<path d="M-18.0623 151.866L-43.5592 126.369L-81.3941 164.203L-106.891 189.7L-81.3941 215.197L-68.8737 227.74L-43.6276 252.964L-43.3539 253.237L-5.51906 215.403L6.63645 227.558L-107.096 341.291L-81.5993 366.81L57.4706 227.74L57.3794 227.672L57.5619 227.49L19.9779 189.906L-5.38223 164.546L-5.51906 164.386L-43.3539 202.244L-55.8971 189.7L-18.0623 151.866Z" fill="white" fill-opacity="0.1"/>
<path d="M95.8757 -37.7649L70.356 -63.2619L-68.8736 75.9677L-68.8508 75.9905L-43.3767 101.465L-31.016 113.825L-5.51904 139.322L6.81892 151.683L32.2474 177.089L32.3386 177.18L95.6704 113.825L70.1735 88.3285L32.3386 126.163L19.9779 113.825L57.8128 75.9905L32.3158 50.4708L-5.51904 88.3285L-17.8798 75.9677L95.8757 -37.7649Z" fill="white" fill-opacity="0.1"/>
<path d="M133.711 0.0927237L108.214 -25.4042L70.3787 12.4307L44.8818 37.9276L70.3787 63.4245L82.8991 75.9677L108.145 101.191L108.419 101.465L146.254 63.6298L158.409 75.7853L44.6766 189.518L70.1735 215.038L209.243 75.9677L209.152 75.8765L209.335 75.694L171.751 38.11L146.391 12.7728L146.254 12.6131L108.419 50.4708L95.8757 37.9276L133.711 0.0927237Z" fill="white" fill-opacity="0.1"/>
<path d="M247.648 -189.538L222.129 -215.035L82.8991 -75.8051L82.9219 -75.7823L108.396 -50.3081L120.757 -37.9474L146.254 -12.4505L158.592 -0.0896987L184.02 25.316L184.111 25.4072L247.443 -37.9474L221.946 -63.4443L184.111 -25.6094L171.751 -37.9474L209.586 -75.7823L184.089 -101.302L146.254 -63.4443L133.893 -75.8051L247.648 -189.538Z" fill="white" fill-opacity="0.1"/>
<path d="M285.483 -151.68L259.986 -177.2L222.152 -139.342L196.655 -113.845L222.152 -88.3483L234.672 -75.8051L259.918 -50.5818L260.192 -50.3081L298.026 -88.143L310.182 -75.9875L196.449 37.7452L221.946 63.2649L361.016 -75.8051L360.925 -75.8963L361.107 -76.0787L323.523 -113.663L298.163 -139L298.026 -139.16L260.192 -101.302L247.648 -113.845L285.483 -151.68Z" fill="white" fill-opacity="0.1"/>
<path d="M-18.2446 455.229L-43.7415 429.732L-81.5764 467.567L-107.096 493.064L-81.5764 518.56L-69.056 531.104L-43.8099 556.327L-43.5591 556.601L-5.70141 518.766L6.4541 530.921L-107.279 644.654L-81.7817 670.174L57.2883 531.104L57.1971 531.013L57.3795 530.83L19.7955 493.246L-5.56457 467.909L-5.70141 467.749L-43.5591 505.607L-56.0795 493.064L-18.2446 455.229Z" fill="white" fill-opacity="0.1"/>
<path d="M95.6704 265.598L70.1735 240.101L-69.0561 379.331L-69.0333 379.354L-43.5592 404.828L-31.1984 417.189L-5.70153 442.685L6.63643 455.046L32.0649 480.452L32.1333 480.543L95.4879 417.189L69.991 391.692L32.1333 429.526L19.7954 417.189L57.6303 379.354L32.1333 353.834L-5.70153 391.692L-18.0623 379.331L95.6704 265.598Z" fill="white" fill-opacity="0.1"/>
<path d="M133.528 303.456L108.031 277.936L70.1963 315.794L44.6993 341.291L70.1963 366.788L82.7167 379.331L107.963 404.554L108.214 404.828L146.071 366.993L158.227 379.148L44.4941 492.881L69.991 518.401L209.061 379.331L208.97 379.24L209.152 379.057L171.568 341.473L146.208 316.136L146.071 315.976L108.214 353.834L95.6932 341.291L133.528 303.456Z" fill="white" fill-opacity="0.1"/>
<path d="M247.466 113.825L221.946 88.3285L82.7168 227.558L82.7396 227.581L108.214 253.055L120.574 265.416L146.071 290.913L158.409 303.273L183.838 328.679L183.929 328.77L247.261 265.416L221.764 239.919L183.929 277.754L171.568 265.416L209.403 227.581L183.906 202.061L146.071 239.919L133.711 227.558L247.466 113.825Z" fill="white" fill-opacity="0.1"/>
<path d="M285.301 151.683L259.804 126.163L221.969 164.021L196.472 189.518L221.969 215.015L234.49 227.558L259.736 252.781L260.009 253.055L297.844 215.22L310 227.376L196.267 341.108L221.764 366.628L360.834 227.558L360.743 227.467L360.925 227.284L323.341 189.7L297.981 164.363L297.844 164.204L260.009 202.061L247.466 189.518L285.301 151.683Z" fill="white" fill-opacity="0.1"/>
<path d="M399.239 -37.9474L373.719 -63.4443L234.49 75.7853L234.512 75.8081L259.986 101.282L272.347 113.643L297.844 139.14L310.182 151.501L335.611 176.906L335.702 176.998L399.034 113.643L373.537 88.1461L335.702 125.981L323.341 113.643L361.176 75.7853L335.679 50.2884L297.844 88.1461L285.483 75.7853L399.239 -37.9474Z" fill="white" fill-opacity="0.1"/>
<path d="M437.074 -0.0896936L411.577 -25.6094L373.742 12.2483L348.245 37.7452L373.742 63.2421L386.262 75.7853L411.508 101.009L411.782 101.282L449.617 63.4473L461.772 75.6028L348.04 189.336L373.537 214.832L512.607 75.7853L512.515 75.6941L512.698 75.5116L475.114 37.9276L449.754 12.5904L449.617 12.4307L411.782 50.2884L399.239 37.7452L437.074 -0.0896936Z" fill="white" fill-opacity="0.1"/>
<path d="M-18.4271 758.592L-43.924 733.095L-81.7589 770.93L-107.279 796.427L-81.7589 821.924L-69.2385 834.467L-43.9924 859.69L-43.7416 859.964L-5.88389 822.129L6.27161 834.284L-107.461 948.017L-81.9641 973.537L57.1058 834.467L57.0146 834.376L57.197 834.193L19.613 796.609L-5.74707 771.272L-5.88389 771.112L-43.7416 808.97L-56.262 796.427L-18.4271 758.592Z" fill="white" fill-opacity="0.1"/>
<path d="M95.488 568.961L69.9911 543.464L-69.2385 682.694V682.717L-43.7415 708.191L-31.3808 720.552L-5.88387 746.049L6.45409 758.409L31.8826 783.815L31.951 783.906L95.3056 720.552L69.8087 695.055L31.951 732.89L19.613 720.552L57.4479 682.717L31.951 657.197L-5.88387 695.055L-18.2446 682.694L95.488 568.961Z" fill="white" fill-opacity="0.1"/>
<path d="M133.346 606.819L107.849 581.299L70.0139 619.157L44.4942 644.654L70.0139 670.151L82.5343 682.694L107.78 707.917L108.031 708.191L145.889 670.356L158.044 682.512L44.3117 796.244L69.8086 821.764L208.879 682.694L208.787 682.603L208.97 682.42L171.386 644.836L146.026 619.499L145.889 619.339L108.031 657.197L95.5108 644.654L133.346 606.819Z" fill="white" fill-opacity="0.1"/>
<path d="M247.261 417.189L221.764 391.692L82.5343 530.921V530.944L108.031 556.418L120.392 568.779L145.889 594.276L158.227 606.637L183.655 632.042L183.724 632.134L247.078 568.779L221.581 543.282L183.724 581.117L171.386 568.779L209.221 530.944L183.724 505.424L145.889 543.282L133.528 530.921L247.261 417.189Z" fill="white" fill-opacity="0.1"/>
<path d="M285.118 455.046L259.621 429.527L221.787 467.384L196.267 492.881L221.787 518.378L234.307 530.921L259.553 556.145L259.804 556.418L297.662 518.583L309.817 530.739L196.084 644.472L221.581 669.968L360.651 530.921L360.56 530.83L360.743 530.648L323.159 493.064L297.798 467.726L297.662 467.567L259.804 505.424L247.284 492.881L285.118 455.046Z" fill="white" fill-opacity="0.1"/>
<path d="M399.034 265.416L373.537 239.919L234.307 379.149L234.33 379.171L259.804 404.645L272.165 417.006L297.662 442.503L310 454.864L335.428 480.27L335.497 480.361L398.851 417.006L373.354 391.509L335.497 429.344L323.159 417.006L360.993 379.149L335.497 353.652L297.662 391.509L285.301 379.149L399.034 265.416Z" fill="white" fill-opacity="0.1"/>
<path d="M436.891 303.274L411.394 277.754L373.559 315.611L348.04 341.108L373.559 366.605L386.08 379.149L411.326 404.372L411.577 404.645L449.434 366.811L461.59 378.966L347.857 492.699L373.354 518.196L512.424 379.149L512.333 379.057L512.515 378.875L474.931 341.291L449.571 315.931L449.434 315.794L411.577 353.652L399.056 341.108L436.891 303.274Z" fill="white" fill-opacity="0.1"/>
<path d="M550.829 113.643L525.309 88.146L386.08 227.376L386.103 227.398L411.577 252.873L423.938 265.233L449.434 290.73L461.772 303.091L487.201 328.497L487.292 328.588L550.624 265.233L525.127 239.736L487.292 277.571L474.931 265.233L512.766 227.376L487.269 201.879L449.434 239.736L437.074 227.376L550.829 113.643Z" fill="white" fill-opacity="0.1"/>
<path d="M588.664 151.501L563.167 125.981L525.332 163.839L499.835 189.336L525.332 214.832L537.853 227.376L563.099 252.599L563.349 252.873L601.207 215.015L613.363 227.193L499.63 340.926L525.127 366.423L664.197 227.376L664.106 227.284L664.288 227.102L626.704 189.518L601.344 164.158L601.207 164.021L563.349 201.856L550.829 189.336L588.664 151.501Z" fill="white" fill-opacity="0.1"/>
<path d="M-18.6096 1061.95L-44.1065 1036.46L-81.9642 1074.29L-107.461 1099.79L-81.9642 1125.29L-69.421 1137.83L-44.1977 1163.05L-43.9241 1163.33L-6.06637 1125.49L6.08914 1137.65L-107.644 1251.38L-82.1466 1276.9L56.9005 1137.83L56.8321 1137.74L57.0145 1137.56L19.4305 1099.97L-5.92954 1074.63L-6.06637 1074.48L-43.9241 1112.33L-56.4445 1099.79L-18.6096 1061.95Z" fill="white" fill-opacity="0.1"/>
<path d="M95.3056 872.325L69.8086 846.828L-69.421 986.057V986.08L-43.924 1011.55L-31.5861 1023.91L-6.06636 1049.41L6.2716 1061.77L31.7001 1087.18L31.7685 1087.27L95.1231 1023.91L69.6262 998.418L31.7685 1036.25L19.4306 1023.91L57.2654 986.08L31.7685 960.56L-6.06636 998.418L-18.4271 986.057L95.3056 872.325Z" fill="white" fill-opacity="0.1"/>
<path d="M133.163 910.182L107.666 884.662L69.8086 922.52L44.3117 948.017L69.8086 973.514L82.3518 986.057L107.598 1011.28L107.849 1011.55L145.706 973.719L157.862 985.875L44.1292 1099.61L69.6262 1125.13L208.673 986.057L208.605 985.966L208.787 985.784L171.203 948.199L145.843 922.862L145.706 922.703L107.849 960.56L95.3283 948.017L133.163 910.182Z" fill="white" fill-opacity="0.1"/>
<path d="M247.078 720.552L221.581 695.055L82.3518 834.284V834.307L107.849 859.781L120.187 872.142L145.706 897.639L158.044 910L183.473 935.405L183.541 935.497L246.896 872.142L221.399 846.645L183.541 884.48L171.203 872.142L209.038 834.307L183.541 808.787L145.706 846.645L133.346 834.284L247.078 720.552Z" fill="white" fill-opacity="0.1"/>
<path d="M284.936 758.409L259.439 732.89L221.604 770.747L196.084 796.244L221.604 821.741L234.125 834.284L259.371 859.508L259.621 859.781L297.479 821.946L309.635 834.102L195.902 947.835L221.399 973.331L360.469 834.284L360.378 834.193L360.56 834.011L322.976 796.427L297.616 771.089L297.479 770.93L259.621 808.787L247.101 796.244L284.936 758.409Z" fill="white" fill-opacity="0.1"/>
<path d="M398.851 568.779L373.354 543.282L234.125 682.512V682.534L259.622 708.009L271.96 720.369L297.479 745.866L309.817 758.227L335.246 783.633L335.314 783.724L398.669 720.369L373.172 694.872L335.314 732.707L322.976 720.369L360.811 682.512L335.314 657.015L297.479 694.872L285.119 682.512L398.851 568.779Z" fill="white" fill-opacity="0.1"/>
<path d="M436.709 606.637L411.212 581.117L373.377 618.975L347.857 644.471L373.377 669.968L385.897 682.512L411.143 707.735L411.394 708.008L449.252 670.174L461.408 682.329L347.675 796.062L373.172 821.559L512.242 682.512L512.151 682.42L512.333 682.238L474.749 644.654L449.389 619.294L449.252 619.157L411.394 657.015L398.874 644.471L436.709 606.637Z" fill="white" fill-opacity="0.1"/>
<path d="M550.624 417.006L525.127 391.509L385.897 530.739V530.762L411.394 556.236L423.755 568.596L449.252 594.093L461.59 606.454L487.019 631.86L487.087 631.951L550.442 568.596L524.945 543.1L487.087 580.934L474.749 568.596L512.584 530.739L487.087 505.242L449.252 543.1L436.891 530.739L550.624 417.006Z" fill="white" fill-opacity="0.1"/>
<path d="M588.482 454.864L562.985 429.344L525.15 467.202L499.63 492.699L525.15 518.196L537.67 530.739L562.916 555.962L563.167 556.236L601.025 518.378L613.18 530.556L499.448 644.289L524.945 669.786L664.015 530.739L663.923 530.648L664.106 530.465L626.522 492.881L601.162 467.521L601.025 467.384L563.167 505.219L550.647 492.699L588.482 454.864Z" fill="white" fill-opacity="0.1"/>
<path d="M702.397 265.233L676.9 239.736L537.67 378.966V378.989L563.167 404.463L575.528 416.824L601.025 442.321L613.363 454.659L638.791 480.087L638.86 480.178L702.214 416.824L676.717 391.327L638.86 429.162L626.522 416.824L664.357 378.966L638.86 353.469L601.025 391.327L588.664 378.966L702.397 265.233Z" fill="white" fill-opacity="0.1"/>
<path d="M740.254 303.068L714.758 277.571L676.923 315.429L651.403 340.926L676.923 366.423L689.443 378.966L714.689 404.189L714.94 404.463L752.798 366.605L764.953 378.784L651.22 492.516L676.717 518.013L815.787 378.966L815.696 378.875L815.879 378.692L778.295 341.108L752.934 315.748L752.798 315.611L714.94 353.446L702.42 340.926L740.254 303.068Z" fill="white" fill-opacity="0.1"/>
<path d="M246.896 1023.91L221.399 998.418L82.1695 1137.65V1137.67L107.666 1163.14L120.004 1175.51L145.524 1201L157.862 1213.36L183.291 1238.77L183.359 1238.86L246.714 1175.51L221.217 1150.01L183.359 1187.84L171.021 1175.51L208.856 1137.67L183.359 1112.15L145.524 1150.01L133.163 1137.65L246.896 1023.91Z" fill="white" fill-opacity="0.1"/>
<path d="M284.754 1061.77L259.257 1036.25L221.399 1074.11L195.902 1099.61L221.399 1125.1L233.942 1137.65L259.165 1162.87L259.439 1163.14L297.297 1125.31L309.452 1137.47L195.72 1251.2L221.217 1276.69L360.264 1137.65L360.195 1137.56L360.378 1137.37L322.794 1099.79L297.434 1074.45L297.297 1074.29L259.439 1112.15L246.919 1099.61L284.754 1061.77Z" fill="white" fill-opacity="0.1"/>
<path d="M398.669 872.142L373.172 846.645L233.942 985.875V985.898L259.439 1011.37L271.777 1023.73L297.297 1049.23L309.635 1061.59L335.063 1087L335.132 1087.09L398.486 1023.73L372.989 998.235L335.132 1036.07L322.794 1023.73L360.629 985.875L335.132 960.378L297.297 998.235L284.936 985.875L398.669 872.142Z" fill="white" fill-opacity="0.1"/>
<path d="M436.526 910L411.029 884.48L373.172 922.338L347.675 947.835L373.172 973.332L385.715 985.875L410.961 1011.1L411.212 1011.37L449.07 973.537L461.225 985.692L347.492 1099.43L372.989 1124.92L512.036 985.875L511.968 985.784L512.15 985.601L474.566 948.017L449.206 922.657L449.07 922.52L411.212 960.378L398.691 947.835L436.526 910Z" fill="white" fill-opacity="0.1"/>
<path d="M550.441 720.369L524.945 694.872L385.715 834.102V834.125L411.212 859.599L423.55 871.96L449.07 897.457L461.408 909.794L486.836 935.223L486.904 935.314L550.259 871.96L524.762 846.463L486.904 884.298L474.566 871.96L512.401 834.102L486.904 808.605L449.07 846.463L436.709 834.102L550.441 720.369Z" fill="white" fill-opacity="0.1"/>
<path d="M588.299 758.227L562.802 732.707L524.967 770.565L499.448 796.062L524.967 821.559L537.488 834.102L562.734 859.325L562.985 859.599L600.842 821.741L612.998 833.919L499.265 947.652L524.762 973.149L663.809 834.102L663.741 834.011L663.923 833.828L626.339 796.244L600.979 770.884L600.842 770.747L562.985 808.582L550.464 796.062L588.299 758.227Z" fill="white" fill-opacity="0.1"/>
<path d="M702.214 568.596L676.717 543.099L537.488 682.329V682.352L562.985 707.826L575.323 720.187L600.842 745.684L613.18 758.022L638.609 783.45L638.677 783.541L702.032 720.187L676.535 694.69L638.677 732.525L626.339 720.187L664.174 682.329L638.677 656.832L600.842 694.69L588.482 682.329L702.214 568.596Z" fill="white" fill-opacity="0.1"/>
<path d="M740.072 606.431L714.575 580.934L676.74 618.792L651.22 644.289L676.74 669.786L689.261 682.329L714.507 707.552L714.758 707.826L752.615 669.968L764.771 682.147L651.038 795.879L676.535 821.376L815.605 682.329L815.514 682.238L815.696 682.055L778.112 644.471L752.752 619.111L752.615 618.974L714.758 656.809L702.237 644.289L740.072 606.431Z" fill="white" fill-opacity="0.1"/>
<path d="M853.987 416.824L828.49 391.327L689.261 530.556V530.579L714.758 556.053L727.118 568.414L752.615 593.911L764.953 606.249L790.382 631.677L790.45 631.769L853.805 568.414L828.308 542.917L790.45 580.752L778.112 568.414L815.947 530.556L790.45 505.059L752.615 542.917L740.254 530.556L853.987 416.824Z" fill="white" fill-opacity="0.1"/>
<path d="M891.845 454.659L866.348 429.162L828.513 467.019L802.993 492.516L828.513 518.013L841.033 530.556L866.279 555.78L866.53 556.053L904.388 518.196L916.544 530.374L802.811 644.107L828.308 669.603L967.378 530.556L967.286 530.465L967.469 530.283L929.885 492.699L904.525 467.339L904.388 467.202L866.53 505.037L854.01 492.516L891.845 454.659Z" fill="white" fill-opacity="0.1"/>
<path d="M551.012 -189.72L525.492 -215.217L386.262 -75.9875L386.285 -75.9647L411.759 -50.4905L424.12 -38.1298L449.617 -12.6329L461.955 -0.272102L487.383 25.1336L487.475 25.2248L550.806 -38.1298L525.309 -63.6267L487.475 -25.7918L475.114 -38.1298L512.949 -75.9875L487.452 -101.484L449.617 -63.6267L437.256 -75.9875L551.012 -189.72Z" fill="white" fill-opacity="0.1"/>
<path d="M588.847 -151.862L563.35 -177.382L525.515 -139.524L500.018 -114.028L525.515 -88.5307L538.035 -75.9875L563.281 -50.7642L563.555 -50.4905L601.39 -88.3482L613.545 -76.1699L499.813 37.5628L525.31 63.0597L664.379 -75.9875L664.288 -76.0787L664.471 -76.2611L626.887 -113.845L601.527 -139.205L601.39 -139.342L563.555 -101.484L551.012 -114.028L588.847 -151.862Z" fill="white" fill-opacity="0.1"/>
<path d="M702.602 -38.1298L677.082 -63.6268L537.853 75.6028L537.875 75.6256L563.35 101.1L575.71 113.46L601.207 138.957L613.545 151.295L638.974 176.724L639.065 176.815L702.397 113.46L676.9 87.9636L639.065 125.798L626.704 113.46L664.539 75.6028L639.042 50.1059L601.207 87.9636L588.846 75.6028L702.602 -38.1298Z" fill="white" fill-opacity="0.1"/>
<path d="M740.437 -0.294975L714.94 -25.7919L677.105 12.0658L651.608 37.5627L677.105 63.0596L689.625 75.6028L714.871 100.826L715.145 101.1L752.98 63.2421L765.135 75.4204L651.403 189.153L676.9 214.65L815.97 75.6028L815.878 75.5116L816.061 75.3292L778.477 37.7451L753.117 12.3851L752.98 12.2482L715.145 50.0831L702.602 37.5627L740.437 -0.294975Z" fill="white" fill-opacity="0.1"/>
<path d="M854.375 -189.903L828.855 -215.4L689.625 -76.17L689.648 -76.1471L715.122 -50.673L727.483 -38.3123L752.98 -12.8154L765.318 -0.477391L790.747 24.9511L790.838 25.0423L854.17 -38.3123L828.673 -63.8092L790.838 -25.9743L778.477 -38.3123L816.312 -76.17L790.815 -101.667L752.98 -63.8092L740.619 -76.17L854.375 -189.903Z" fill="white" fill-opacity="0.1"/>
<path d="M892.21 -152.068L866.713 -177.565L828.878 -139.707L803.381 -114.21L828.878 -88.7132L841.398 -76.17L866.644 -50.9467L866.918 -50.673L904.753 -88.5307L916.908 -76.3524L803.176 37.3803L828.673 62.8772L967.743 -76.17L967.651 -76.2612L967.834 -76.4436L930.25 -114.028L904.89 -139.388L904.753 -139.525L866.918 -101.69L854.375 -114.21L892.21 -152.068Z" fill="white" fill-opacity="0.1"/>
<path d="M854.192 113.461L828.673 87.9637L689.443 227.193L689.466 227.216L714.94 252.69L727.301 265.051L752.798 290.548L765.136 302.886L790.564 328.314L790.655 328.406L853.987 265.051L828.49 239.554L790.655 277.389L778.294 265.051L816.129 227.193L790.632 201.696L752.798 239.554L740.437 227.193L854.192 113.461Z" fill="white" fill-opacity="0.1"/>
<path d="M892.027 151.296L866.53 125.799L828.695 163.656L803.199 189.153L828.695 214.65L841.216 227.193L866.462 252.417L866.713 252.69L904.57 214.833L916.726 227.011L802.993 340.744L828.49 366.24L967.56 227.193L967.469 227.102L967.651 226.92L930.067 189.336L904.707 163.976L904.57 163.839L866.713 201.674L854.192 189.153L892.027 151.296Z" fill="white" fill-opacity="0.1"/>
<path d="M1005.97 -38.3123L980.445 -63.832L841.216 75.4204L841.239 75.4432L866.713 100.917L879.073 113.278L904.57 138.775L916.908 151.113L942.337 176.541L942.428 176.633L1005.76 113.278L980.263 87.7812L942.428 125.616L930.067 113.278L967.902 75.4204L942.405 49.9235L904.57 87.7583L892.21 75.4204L1005.97 -38.3123Z" fill="white" fill-opacity="0.1"/>
<path d="M1043.8 -0.477375L1018.3 -25.9743L980.468 11.8834L954.971 37.3803L980.468 62.8772L992.989 75.4204L1018.23 100.644L1018.51 100.917L1056.34 63.0597L1068.5 75.238L954.766 188.971L980.263 214.468L1119.33 75.4204L1119.24 75.3292L1119.42 75.1468L1081.84 37.5627L1056.48 12.2027L1056.34 12.0658L1018.51 49.9007L1005.97 37.3803L1043.8 -0.477375Z" fill="white" fill-opacity="0.1"/>
<path d="M1157.74 -190.085L1132.22 -215.605L992.989 -76.3524L993.011 -76.3296L1018.49 -50.8554L1030.85 -38.4947L1056.34 -12.9978L1068.68 -0.659828L1094.11 24.7687L1094.2 24.8599L1157.53 -38.4947L1132.04 -63.9916L1094.2 -26.1567L1081.84 -38.4947L1119.67 -76.3524L1094.18 -101.849L1056.34 -64.0144L1043.98 -76.3524L1157.74 -190.085Z" fill="white" fill-opacity="0.1"/>
<path d="M1195.57 -152.25L1170.08 -177.747L1132.24 -139.889L1106.74 -114.392L1132.24 -88.8956L1144.76 -76.3752L1170.01 -51.1291L1170.28 -50.8555L1208.12 -88.7131L1220.27 -76.5348L1106.54 37.1979L1132.04 62.6948L1271.11 -76.3524L1271.01 -76.4436L1271.2 -76.626L1233.61 -114.21L1208.25 -139.57L1208.12 -139.707L1170.28 -101.872L1157.74 -114.392L1195.57 -152.25Z" fill="white" fill-opacity="0.1"/>
<path d="M1005.76 265.051L980.263 239.531L841.033 378.783V378.806L866.53 404.28L878.891 416.641L904.388 442.138L916.726 454.476L942.154 479.905L942.223 479.996L1005.58 416.641L980.081 391.144L942.223 428.979L929.885 416.641L967.72 378.783L942.223 353.287L904.388 391.121L892.027 378.783L1005.76 265.051Z" fill="white" fill-opacity="0.1"/>
<path d="M1043.62 302.886L1018.12 277.389L980.286 315.246L954.766 340.743L980.286 366.24L992.806 378.783L1018.05 404.007L1018.3 404.28L1056.16 366.423L1068.32 378.601L954.584 492.334L980.081 517.831L1119.15 378.783L1119.06 378.692L1119.24 378.51L1081.66 340.926L1056.3 315.566L1056.16 315.429L1018.3 353.264L1005.78 340.743L1043.62 302.886Z" fill="white" fill-opacity="0.1"/>
<path d="M1157.56 113.278L1132.04 87.7583L992.806 227.011L992.829 227.034L1018.3 252.508L1030.66 264.868L1056.16 290.365L1068.5 302.703L1093.93 328.132L1094.02 328.2L1157.35 264.868L1131.85 239.372L1094.02 277.206L1081.66 264.868L1119.49 227.011L1094 201.514L1056.16 239.349L1043.8 227.011L1157.56 113.278Z" fill="white" fill-opacity="0.1"/>
<path d="M1195.39 151.113L1169.89 125.616L1132.06 163.474L1106.56 188.971L1132.06 214.467L1144.58 226.988L1169.83 252.234L1170.08 252.508L1207.93 214.65L1220.09 226.828L1106.36 340.561L1131.85 366.058L1270.92 227.011L1270.83 226.919L1271.01 226.737L1233.43 189.153L1208.07 163.793L1207.93 163.656L1170.08 201.491L1157.56 188.971L1195.39 151.113Z" fill="white" fill-opacity="0.1"/>
<path d="M1309.33 -38.4947L1283.81 -64.0144L1144.58 75.238H1144.6L1170.08 100.735L1182.44 113.096L1207.93 138.593L1220.27 150.931L1245.7 176.359L1245.79 176.427L1309.12 113.096L1283.63 87.5987L1245.79 125.434L1233.43 113.096L1271.27 75.238L1245.77 49.7411L1207.93 87.5759L1195.57 75.238L1309.33 -38.4947Z" fill="white" fill-opacity="0.1"/>
<path d="M1347.16 -0.659828L1321.67 -26.1567L1283.83 11.6781L1258.33 37.1979L1283.83 62.6948L1296.35 75.2152L1321.6 100.461L1321.87 100.735L1359.71 62.8772L1371.86 75.0555L1258.13 188.788L1283.63 214.285L1422.7 75.238L1422.6 75.1468L1422.79 74.9643L1385.2 37.3803L1359.84 12.0202L1359.71 11.8834L1321.87 49.7182L1309.33 37.1979L1347.16 -0.659828Z" fill="white" fill-opacity="0.1"/>
<path d="M1461.1 -190.267L1435.58 -215.787L1296.35 -76.5348H1296.37L1321.85 -51.0379L1334.21 -38.6771L1359.71 -13.1802L1372.04 -0.842247L1397.47 24.5863L1397.56 24.6547L1460.9 -38.6771L1435.4 -64.174L1397.56 -26.3392L1385.2 -38.6771L1423.04 -76.5348L1397.54 -102.032L1359.71 -64.1968L1347.35 -76.5348L1461.1 -190.267Z" fill="white" fill-opacity="0.1"/>
<path d="M1498.94 -152.433L1473.44 -177.93L1435.6 -140.095L1410.11 -114.575L1435.6 -89.078L1448.12 -76.5576L1473.37 -51.3115L1473.64 -51.0379L1511.48 -88.8955L1523.63 -76.7172L1409.9 37.0154L1435.4 62.5124L1574.47 -76.5348L1574.38 -76.626L1574.56 -76.8085L1536.98 -114.392L1511.62 -139.753L1511.48 -139.889L1473.64 -102.055L1461.1 -114.575L1498.94 -152.433Z" fill="white" fill-opacity="0.1"/>
<path d="M550.259 1023.73L524.762 998.236L385.533 1137.47V1137.49L411.029 1162.96L423.367 1175.32L448.887 1200.82L461.225 1213.16L486.654 1238.59L486.722 1238.68L550.077 1175.32L524.58 1149.83L486.722 1187.66L474.384 1175.32L512.219 1137.47L486.722 1111.97L448.887 1149.83L436.526 1137.47L550.259 1023.73Z" fill="white" fill-opacity="0.1"/>
<path d="M588.117 1061.59L562.62 1036.07L524.762 1073.93L499.265 1099.42L524.762 1124.92L537.305 1137.47L562.529 1162.69L562.802 1162.96L600.66 1125.1L612.815 1137.28L499.083 1251.02L524.58 1276.51L663.627 1137.47L663.558 1137.37L663.741 1137.19L626.157 1099.61L600.797 1074.25L600.66 1074.11L562.802 1111.95L550.282 1099.42L588.117 1061.59Z" fill="white" fill-opacity="0.1"/>
<path d="M702.032 871.96L676.535 846.463L537.305 985.692V985.715L562.802 1011.19L575.14 1023.55L600.66 1049.05L612.998 1061.38L638.426 1086.81L638.495 1086.9L701.849 1023.55L676.352 998.053L638.495 1035.89L626.157 1023.55L663.992 985.692L638.495 960.195L600.66 998.053L588.299 985.692L702.032 871.96Z" fill="white" fill-opacity="0.1"/>
<path d="M739.889 909.795L714.393 884.298L676.535 922.155L651.038 947.652L676.535 973.149L689.078 985.692L714.324 1010.92L714.575 1011.19L752.433 973.332L764.588 985.51L650.856 1099.24L676.352 1124.74L815.4 985.692L815.331 985.601L815.514 985.419L777.93 947.835L752.569 922.475L752.433 922.338L714.575 960.173L702.055 947.652L739.889 909.795Z" fill="white" fill-opacity="0.1"/>
<path d="M853.805 720.187L828.308 694.69L689.078 833.919V833.942L714.575 859.416L726.913 871.777L752.433 897.274L764.771 909.612L790.199 935.041L790.268 935.132L853.622 871.777L828.125 846.28L790.268 884.115L777.93 871.777L815.765 833.919L790.268 808.423L752.433 846.28L740.072 833.919L853.805 720.187Z" fill="white" fill-opacity="0.1"/>
<path d="M891.662 758.022L866.165 732.525L828.331 770.382L802.811 795.879L828.331 821.376L840.851 833.919L866.097 859.143L866.348 859.416L904.206 821.559L916.361 833.737L802.628 947.47L828.125 972.967L967.172 833.919L967.104 833.828L967.286 833.646L929.702 796.062L904.342 770.702L904.206 770.565L866.348 808.4L853.827 795.879L891.662 758.022Z" fill="white" fill-opacity="0.1"/>
<path d="M1005.58 568.414L980.081 542.894L840.851 682.147V682.17L866.348 707.644L878.686 720.004L904.206 745.501L916.544 757.839L941.972 783.268L942.04 783.359L1005.39 720.004L979.898 694.507L942.04 732.342L929.702 720.004L967.537 682.147L942.04 656.65L904.206 694.485L891.845 682.147L1005.58 568.414Z" fill="white" fill-opacity="0.1"/>
<path d="M1043.44 606.249L1017.94 580.752L980.103 618.61L954.584 644.106L980.103 669.603L992.624 682.147L1017.87 707.37L1018.12 707.643L1055.98 669.786L1068.13 681.964L954.401 795.697L979.898 821.194L1118.97 682.147L1118.88 682.055L1119.06 681.873L1081.48 644.289L1056.12 618.929L1055.98 618.792L1018.12 656.627L1005.6 644.106L1043.44 606.249Z" fill="white" fill-opacity="0.1"/>
<path d="M853.622 1023.55L828.125 998.053L688.896 1137.28V1137.31L714.393 1162.78L726.731 1175.14L752.25 1200.64L764.588 1212.98L790.017 1238.4L790.085 1238.49L853.44 1175.14L827.943 1149.64L790.085 1187.48L777.747 1175.14L815.582 1137.28L790.085 1111.79L752.25 1149.62L739.889 1137.28L853.622 1023.55Z" fill="white" fill-opacity="0.1"/>
<path d="M891.48 1061.38L865.983 1035.89L828.125 1073.75L802.628 1099.24L828.125 1124.74L840.668 1137.28L865.892 1162.51L866.165 1162.78L904.023 1124.92L916.179 1137.1L802.446 1250.83L827.943 1276.33L966.99 1137.28L966.922 1137.19L967.104 1137.01L929.52 1099.42L904.16 1074.06L904.023 1073.93L866.165 1111.76L853.645 1099.24L891.48 1061.38Z" fill="white" fill-opacity="0.1"/>
<path d="M1005.39 871.777L979.898 846.258L840.668 985.51V985.533L866.165 1011.01L878.503 1023.37L904.023 1048.86L916.361 1061.2L941.789 1086.63L941.858 1086.72L1005.21 1023.37L979.716 997.871L941.858 1035.71L929.52 1023.37L967.355 985.51L941.858 960.013L904.023 997.848L891.662 985.51L1005.39 871.777Z" fill="white" fill-opacity="0.1"/>
<path d="M1043.25 909.612L1017.76 884.115L979.898 921.973L954.401 947.47L979.898 972.967L992.441 985.51L1017.69 1010.73L1017.94 1011.01L1055.8 973.149L1067.95 985.327L954.219 1099.06L979.716 1124.56L1118.76 985.51L1118.69 985.419L1118.88 985.236L1081.29 947.652L1055.93 922.292L1055.8 922.155L1017.94 959.99L1005.42 947.47L1043.25 909.612Z" fill="white" fill-opacity="0.1"/>
<path d="M1157.17 720.004L1131.67 694.485L992.441 833.737L1017.94 859.234L1030.28 871.595L1055.8 897.092L1068.13 909.429L1093.56 934.858L1093.63 934.926L1156.99 871.595L1131.49 846.098L1093.63 883.933L1081.29 871.595L1119.13 833.737L1093.63 808.24L1055.8 846.075L1043.44 833.737L1157.17 720.004Z" fill="white" fill-opacity="0.1"/>
<path d="M1195.03 757.839L1169.53 732.342L1131.69 770.2L1106.17 795.697L1131.69 821.194L1144.21 833.714L1169.46 858.96L1169.71 859.234L1207.57 821.376L1219.72 833.554L1105.99 947.287L1131.49 972.784L1270.54 833.737L1270.47 833.646L1270.65 833.463L1233.07 795.879L1207.71 770.519L1207.57 770.382L1169.71 808.217L1157.19 795.697L1195.03 757.839Z" fill="white" fill-opacity="0.1"/>
<path d="M1156.99 1023.37L1131.49 997.848L992.259 1137.1L1017.76 1162.6L1030.09 1174.96L1055.61 1200.45L1067.95 1212.79L1093.38 1238.22L1093.45 1238.29L1156.8 1174.96L1131.31 1149.46L1093.45 1187.3L1081.11 1174.96L1118.95 1137.1L1093.45 1111.6L1055.61 1149.44L1043.25 1137.1L1156.99 1023.37Z" fill="white" fill-opacity="0.1"/>
<path d="M1194.84 1061.2L1169.35 1035.71L1131.49 1073.54L1105.99 1099.06L1131.49 1124.56L1144.03 1137.08L1169.25 1162.32L1169.53 1162.6L1207.39 1124.74L1219.54 1136.92L1105.81 1250.65L1131.31 1276.15L1270.35 1137.1L1270.28 1137.01L1270.47 1136.83L1232.88 1099.24L1207.52 1073.88L1207.39 1073.75L1169.53 1111.58L1157.01 1099.06L1194.84 1061.2Z" fill="white" fill-opacity="0.1"/>
<path d="M1308.76 871.595L1283.26 846.075L1144.03 985.327L1169.53 1010.82L1181.87 1023.19L1207.39 1048.68L1219.72 1061.02L1245.15 1086.45L1245.22 1086.52L1308.58 1023.19L1283.08 997.688L1245.22 1035.52L1232.88 1023.19L1270.72 985.327L1245.22 959.83L1207.39 997.665L1195.03 985.327L1308.76 871.595Z" fill="white" fill-opacity="0.1"/>
<path d="M1346.62 909.43L1321.12 883.933L1283.26 921.768L1257.76 947.287L1283.26 972.784L1295.8 985.305L1321.05 1010.55L1321.3 1010.82L1359.16 972.967L1371.31 985.145L1257.58 1098.88L1283.08 1124.37L1422.13 985.327L1422.06 985.236L1422.24 985.054L1384.66 947.47L1359.3 922.11L1359.16 921.973L1321.3 959.808L1308.78 947.287L1346.62 909.43Z" fill="white" fill-opacity="0.1"/>
<path d="M1460.35 1023.16L1434.85 997.665L1295.62 1136.92L1321.12 1162.41L1333.46 1174.75L1358.95 1200.27L1371.31 1212.61L1396.74 1238.04L1396.81 1238.11L1460.17 1174.78L1434.67 1149.28L1396.81 1187.11L1384.47 1174.75L1422.31 1136.92L1396.81 1111.42L1358.95 1149.26L1346.62 1136.92L1460.35 1023.16Z" fill="white" fill-opacity="0.1"/>
<path d="M1498.21 1061.02L1472.71 1035.52L1434.85 1073.36L1409.35 1098.88L1434.85 1124.37L1447.39 1136.9L1472.62 1162.14L1472.89 1162.41L1510.75 1124.56L1522.9 1136.74L1409.17 1250.47L1434.67 1275.96L1573.72 1136.92L1573.65 1136.83L1573.83 1136.64L1536.25 1099.06L1510.89 1073.7L1510.75 1073.56L1472.89 1111.4L1460.37 1098.88L1498.21 1061.02Z" fill="white" fill-opacity="0.1"/>
<path d="M1157.35 416.641L1131.85 391.122L992.624 530.374V530.397L1018.12 555.871L1030.48 568.232L1055.98 593.729L1068.32 606.066L1093.74 631.495L1093.81 631.563L1157.17 568.232L1131.67 542.735L1093.81 580.57L1081.48 568.232L1119.31 530.374L1093.81 504.877L1055.98 542.712L1043.62 530.374L1157.35 416.641Z" fill="white" fill-opacity="0.1"/>
<path d="M1195.21 454.476L1169.71 428.979L1131.88 466.837L1106.36 492.334L1131.88 517.831L1144.4 530.351L1169.64 555.597L1169.89 555.871L1207.75 518.013L1219.91 530.192L1106.17 643.924L1131.67 669.421L1270.74 530.374L1270.65 530.283L1270.83 530.1L1233.25 492.516L1207.89 467.156L1207.75 467.019L1169.89 504.854L1157.37 492.334L1195.21 454.476Z" fill="white" fill-opacity="0.1"/>
<path d="M1309.12 264.868L1283.63 239.349L1144.4 378.601L1169.89 404.098L1182.25 416.459L1207.75 441.956L1220.09 454.294L1245.52 479.722L1245.59 479.791L1308.94 416.459L1283.44 390.962L1245.59 428.797L1233.25 416.459L1271.08 378.601L1245.59 353.104L1207.75 390.939L1195.39 378.601L1309.12 264.868Z" fill="white" fill-opacity="0.1"/>
<path d="M1346.98 302.703L1321.48 277.206L1283.65 315.041L1258.13 340.561L1283.65 366.058L1296.17 378.578L1321.42 403.824L1321.67 404.098L1359.52 366.24L1371.68 378.419L1257.95 492.151L1283.44 517.648L1422.51 378.601L1422.42 378.51L1422.6 378.327L1385.02 340.743L1359.66 315.383L1359.52 315.246L1321.67 353.081L1309.15 340.561L1346.98 302.703Z" fill="white" fill-opacity="0.1"/>
<path d="M1460.92 113.096L1435.4 87.5759L1296.17 226.828H1296.19L1321.67 252.325L1334.03 264.686L1359.52 290.183L1371.86 302.521L1397.29 327.949L1397.38 328.018L1460.71 264.686L1435.22 239.189L1397.38 277.024L1385.02 264.663L1422.86 226.828L1397.36 201.331L1359.52 239.166L1347.16 226.828L1460.92 113.096Z" fill="white" fill-opacity="0.1"/>
<path d="M1498.75 150.93L1473.26 125.433L1435.42 163.268L1409.92 188.788L1435.42 214.285L1447.94 226.805L1473.19 252.051L1473.44 252.325L1511.3 214.467L1523.45 226.646L1409.72 340.378L1435.22 365.875L1574.29 226.828L1574.2 226.737L1574.38 226.555L1536.79 188.971L1511.43 163.61L1511.3 163.474L1473.44 201.308L1460.92 188.788L1498.75 150.93Z" fill="white" fill-opacity="0.1"/>
<path d="M1612.69 -38.7L1587.17 -64.1969L1447.94 75.0555H1447.96L1473.44 100.552L1485.8 112.89L1511.3 138.41L1523.63 150.748L1549.06 176.177L1549.15 176.245L1612.49 112.913L1586.99 87.4162L1549.15 125.251L1536.79 112.89L1574.63 75.0555L1549.13 49.5586L1511.3 87.3934L1498.94 75.0555L1612.69 -38.7Z" fill="white" fill-opacity="0.1"/>
<path d="M1650.53 -0.842308L1625.03 -26.3392L1587.19 11.4956L1561.7 37.0154L1587.19 62.5123L1599.71 75.0327L1624.96 100.279L1625.23 100.552L1663.07 62.6947L1675.22 74.873L1561.49 188.606L1586.99 214.103L1726.06 75.0555L1725.97 74.9643L1726.15 74.7818L1688.57 37.1978L1663.21 11.8377L1663.07 11.7009L1625.23 49.5358L1612.69 37.0154L1650.53 -0.842308Z" fill="white" fill-opacity="0.1"/>
<path d="M1764.46 -190.473L1738.94 -215.97L1599.71 -76.7173H1599.74L1625.21 -51.2203L1637.57 -38.8824L1663.07 -13.3627L1675.41 -1.02473L1700.84 24.4038L1700.93 24.4722L1764.26 -38.8596L1738.76 -64.3565L1700.93 -26.5216L1688.57 -38.8824L1726.4 -76.7173L1700.9 -102.214L1663.07 -64.3793L1650.71 -76.7173L1764.46 -190.473Z" fill="white" fill-opacity="0.1"/>
<path d="M1802.3 -152.615L1776.8 -178.112L1738.97 -140.277L1713.47 -114.757L1738.97 -89.2605L1751.49 -76.7401L1776.73 -51.494L1777.01 -51.2432L1814.84 -89.078L1827 -76.8997L1713.27 36.833L1738.76 62.3299L1877.83 -76.7173L1877.74 -76.8085L1877.92 -76.9909L1840.34 -114.575L1814.98 -139.935L1814.84 -140.072L1777.01 -102.237L1764.46 -114.757L1802.3 -152.615Z" fill="white" fill-opacity="0.1"/>
<path d="M1308.94 568.232L1283.44 542.712L1144.21 681.964L1169.71 707.461L1182.05 719.822L1207.57 745.319L1219.91 757.657L1245.34 783.085L1245.4 783.154L1308.76 719.822L1283.26 694.325L1245.4 732.16L1233.07 719.822L1270.9 681.964L1245.4 656.467L1207.57 694.302L1195.21 681.964L1308.94 568.232Z" fill="white" fill-opacity="0.1"/>
<path d="M1346.8 606.067L1321.3 580.57L1283.47 618.405L1257.95 643.924L1283.47 669.421L1295.99 681.942L1321.23 707.188L1321.48 707.461L1359.34 669.604L1371.5 681.782L1257.76 795.515L1283.26 821.012L1422.33 681.964L1422.24 681.873L1422.42 681.691L1384.84 644.107L1359.48 618.747L1359.34 618.61L1321.48 656.445L1308.96 643.924L1346.8 606.067Z" fill="white" fill-opacity="0.1"/>
<path d="M1460.71 416.459L1435.22 390.939L1295.99 530.191L1321.48 555.688L1333.84 568.026L1359.34 593.546L1371.68 605.884L1397.11 631.312L1397.18 631.381L1460.53 568.049L1435.03 542.552L1397.18 580.387L1384.84 568.026L1422.67 530.191L1397.18 504.695L1359.34 542.529L1346.98 530.191L1460.71 416.459Z" fill="white" fill-opacity="0.1"/>
<path d="M1498.57 454.294L1473.07 428.797L1435.24 466.632L1409.72 492.151L1435.24 517.648L1447.76 530.169L1473.01 555.415L1473.26 555.688L1511.11 517.831L1523.27 530.009L1409.54 643.742L1435.03 669.239L1574.1 530.191L1574.01 530.1L1574.2 529.918L1536.61 492.334L1511.25 466.974L1511.11 466.837L1473.26 504.672L1460.74 492.151L1498.57 454.294Z" fill="white" fill-opacity="0.1"/>
<path d="M1612.49 264.663L1586.99 239.166L1447.76 378.419L1473.26 403.916L1485.62 416.254L1511.11 441.773L1523.45 454.111L1548.88 479.54L1548.95 479.608L1612.3 416.276L1586.81 390.779L1548.95 428.614L1536.61 416.254L1574.45 378.419L1548.95 352.922L1511.11 390.757L1498.75 378.419L1612.49 264.663Z" fill="white" fill-opacity="0.1"/>
<path d="M1650.34 302.521L1624.85 277.024L1587.01 314.859L1561.49 340.379L1587.01 365.875L1599.53 378.396L1624.78 403.642L1625.03 403.916L1662.89 366.058L1675.04 378.236L1561.31 491.969L1586.81 517.466L1725.88 378.419L1725.79 378.327L1725.97 378.145L1688.38 340.561L1663.02 315.201L1662.89 315.064L1625.03 352.899L1612.51 340.379L1650.34 302.521Z" fill="white" fill-opacity="0.1"/>
<path d="M1764.26 112.89L1738.76 87.3935L1599.53 226.646H1599.56L1625.03 252.143L1637.39 264.481L1662.89 290.001L1675.23 302.338L1700.65 327.767L1700.74 327.835L1764.08 264.504L1738.58 239.007L1700.74 276.842L1688.38 264.481L1726.22 226.646L1700.72 201.149L1662.89 238.984L1650.53 226.646L1764.26 112.89Z" fill="white" fill-opacity="0.1"/>
<path d="M1802.12 150.748L1776.62 125.251L1738.78 163.086L1713.29 188.606L1738.78 214.103L1751.31 226.623L1776.55 251.869L1776.8 252.12L1814.66 214.285L1826.82 226.463L1713.08 340.196L1738.58 365.693L1877.65 226.646L1877.56 226.555L1877.74 226.372L1840.16 188.788L1814.8 163.428L1814.66 163.291L1776.8 201.126L1764.28 188.606L1802.12 150.748Z" fill="white" fill-opacity="0.1"/>
<path d="M1916.05 -38.8824L1890.53 -64.3793L1751.31 74.8731H1751.33L1776.8 100.37L1789.16 112.708L1814.66 138.228L1827 150.566L1852.43 175.994L1852.52 176.063L1915.85 112.731L1890.35 87.2338L1852.52 125.069L1840.16 112.708L1877.99 74.8731L1852.49 49.3761L1814.66 87.211L1802.3 74.8731L1916.05 -38.8824Z" fill="white" fill-opacity="0.1"/>
<path d="M1953.89 -1.02471L1928.39 -26.5216L1890.56 11.3133L1865.06 36.8102L1890.56 62.3299L1903.08 74.8503L1928.32 100.096L1928.6 100.347L1966.43 62.5123L1978.59 74.6906L1864.86 188.423L1890.35 213.92L2029.42 74.8731L2029.33 74.7819L2029.51 74.5994L1991.93 37.0154L1966.57 11.6553L1966.43 11.5185L1928.6 49.3534L1916.05 36.8102L1953.89 -1.02471Z" fill="white" fill-opacity="0.1"/>
<path d="M2067.83 -190.655L2042.31 -216.152L1903.08 -76.8998H1903.1L1928.58 -51.4028L1940.94 -39.0649L1966.43 -13.568L1978.77 -1.20722L2004.2 24.2213L2004.29 24.2897L2067.62 -39.0421L2042.13 -64.539L2004.29 -26.7041L1991.93 -39.0649L2029.76 -76.8998L2004.27 -102.397L1966.43 -64.5618L1954.07 -76.8998L2067.83 -190.655Z" fill="white" fill-opacity="0.1"/>
<path d="M1460.53 719.822L1435.03 694.302L1295.8 833.555L1321.3 859.052L1333.64 871.389L1359.16 896.909L1371.5 909.247L1396.93 934.676L1396.99 934.744L1460.35 871.412L1434.85 845.915L1396.99 883.75L1384.66 871.389L1422.49 833.555L1396.99 808.058L1359.16 845.893L1346.8 833.555L1460.53 719.822Z" fill="white" fill-opacity="0.1"/>
<path d="M1498.39 757.657L1472.89 732.16L1435.03 769.995L1409.54 795.514L1435.03 821.011L1447.58 833.532L1472.82 858.778L1473.07 859.052L1510.93 821.194L1523.09 833.372L1409.35 947.105L1434.85 972.602L1573.9 833.555L1573.83 833.463L1574.01 833.281L1536.43 795.697L1511.07 770.337L1510.93 770.2L1473.07 808.035L1460.55 795.514L1498.39 757.657Z" fill="white" fill-opacity="0.1"/>
<path d="M1612.3 568.026L1586.81 542.529L1447.58 681.782L1473.07 707.279L1485.41 719.617L1510.93 745.136L1523.27 757.474L1548.7 782.903L1548.77 782.971L1612.12 719.639L1586.62 694.142L1548.77 731.977L1536.43 719.617L1574.26 681.782L1548.77 656.285L1510.93 694.12L1498.57 681.782L1612.3 568.026Z" fill="white" fill-opacity="0.1"/>
<path d="M1650.16 605.884L1624.66 580.387L1586.83 618.222L1561.31 643.742L1586.83 669.238L1599.35 681.759L1624.6 707.005L1624.85 707.256L1662.7 669.421L1674.86 681.599L1561.13 795.332L1586.62 820.829L1725.69 681.782L1725.6 681.69L1725.79 681.508L1688.2 643.924L1662.84 618.564L1662.7 618.427L1624.85 656.262L1612.33 643.742L1650.16 605.884Z" fill="white" fill-opacity="0.1"/>
<path d="M1764.08 416.253L1738.58 390.757L1599.35 530.009L1624.85 555.506L1637.21 567.844L1662.7 593.364L1675.04 605.702L1700.47 631.13L1700.54 631.198L1763.89 567.867L1738.4 542.37L1700.54 580.205L1688.2 567.844L1726.04 530.009L1700.54 504.512L1662.7 542.347L1650.34 530.009L1764.08 416.253Z" fill="white" fill-opacity="0.1"/>
<path d="M1801.93 454.111L1776.44 428.614L1738.6 466.449L1713.08 491.946L1738.6 517.466L1751.12 529.986L1776.37 555.232L1776.62 555.483L1814.48 517.648L1826.63 529.827L1712.9 643.559L1738.4 669.056L1877.47 530.009L1877.38 529.918L1877.56 529.735L1839.97 492.151L1814.61 466.791L1814.48 466.654L1776.62 504.489L1764.1 491.946L1801.93 454.111Z" fill="white" fill-opacity="0.1"/>
<path d="M1915.85 264.481L1890.35 238.984L1751.12 378.236L1776.62 403.733L1788.98 416.071L1814.48 441.591L1826.82 453.929L1852.24 479.357L1852.31 479.426L1915.67 416.094L1890.17 390.597L1852.31 428.432L1839.97 416.071L1877.81 378.236L1852.31 352.739L1814.48 390.574L1802.12 378.236L1915.85 264.481Z" fill="white" fill-opacity="0.1"/>
<path d="M1953.71 302.338L1928.21 276.841L1890.38 314.676L1864.86 340.173L1890.38 365.693L1902.9 378.213L1928.14 403.459L1928.39 403.71L1966.25 365.875L1978.41 378.054L1864.67 491.786L1890.17 517.283L2029.24 378.236L2029.15 378.145L2029.33 377.962L1991.75 340.378L1966.39 315.018L1966.25 314.882L1928.39 352.716L1915.87 340.173L1953.71 302.338Z" fill="white" fill-opacity="0.1"/>
<path d="M2067.62 112.708L2042.13 87.211L1902.9 226.463H1902.92L1928.39 251.96L1940.75 264.298L1966.25 289.795L1978.59 302.156L2004.02 327.584L2004.09 327.653L2067.44 264.321L2041.94 238.801L2004.09 276.659L1991.75 264.298L2029.58 226.463L2004.09 200.967L1966.25 238.801L1953.89 226.463L2067.62 112.708Z" fill="white" fill-opacity="0.1"/>
<path d="M1612.12 871.389L1586.62 845.893L1447.39 985.145L1472.89 1010.64L1485.23 1022.98L1510.75 1048.5L1523.09 1060.84L1548.52 1086.27L1548.58 1086.33L1611.94 1023L1586.44 997.506L1548.58 1035.34L1536.25 1022.98L1574.08 985.145L1548.58 959.648L1510.75 997.483L1498.39 985.145L1612.12 871.389Z" fill="white" fill-opacity="0.1"/>
<path d="M1649.98 909.247L1624.48 883.75L1586.62 921.585L1561.13 947.105L1586.62 972.602L1599.17 985.122L1624.41 1010.37L1624.66 1010.62L1662.52 972.784L1674.68 984.962L1560.95 1098.7L1586.44 1124.19L1725.49 985.145L1725.42 985.054L1725.6 984.871L1688.02 947.287L1662.66 921.927L1662.52 921.79L1624.66 959.625L1612.14 947.105L1649.98 909.247Z" fill="white" fill-opacity="0.1"/>
<path d="M1763.89 719.617L1738.4 694.12L1599.17 833.372L1624.66 858.869L1637 871.207L1662.52 896.727L1674.86 909.065L1700.29 934.493L1700.36 934.562L1763.71 871.23L1738.21 845.733L1700.36 883.568L1688.02 871.207L1725.85 833.372L1700.36 807.875L1662.52 845.71L1650.16 833.372L1763.89 719.617Z" fill="white" fill-opacity="0.1"/>
<path d="M1801.75 757.474L1776.25 731.977L1738.4 769.812L1712.9 795.309L1738.4 820.829L1750.94 833.349L1776.19 858.595L1776.44 858.846L1814.29 821.011L1826.45 833.19L1712.72 946.922L1738.21 972.419L1877.26 833.372L1877.19 833.281L1877.38 833.099L1839.79 795.514L1814.43 770.154L1814.29 770.018L1776.44 807.852L1763.92 795.309L1801.75 757.474Z" fill="white" fill-opacity="0.1"/>
<path d="M1915.67 567.844L1890.17 542.347L1750.94 681.599L1776.44 707.096L1788.78 719.434L1814.29 744.954L1826.63 757.292L1852.06 782.72L1852.13 782.789L1915.48 719.457L1889.99 693.96L1852.13 731.795L1839.79 719.434L1877.63 681.599L1852.13 656.102L1814.29 693.937L1801.93 681.599L1915.67 567.844Z" fill="white" fill-opacity="0.1"/>
<path d="M1953.52 605.702L1928.03 580.205L1890.19 618.04L1864.67 643.536L1890.19 669.056L1902.71 681.577L1927.96 706.823L1928.21 707.073L1966.07 669.239L1978.22 681.417L1864.49 795.15L1889.99 820.647L2029.06 681.599L2028.97 681.508L2029.15 681.326L1991.56 643.742L1966.2 618.382L1966.07 618.245L1928.21 656.08L1915.69 643.536L1953.52 605.702Z" fill="white" fill-opacity="0.1"/>
<path d="M2067.44 416.071L2041.94 390.574L1902.71 529.827L1928.21 555.324L1940.57 567.661L1966.07 593.158L1978.41 605.519L2003.83 630.948L2003.9 631.016L2067.26 567.684L2041.76 542.165L2003.9 580.022L1991.56 567.661L2029.4 529.827L2003.9 504.33L1966.07 542.165L1953.71 529.827L2067.44 416.071Z" fill="white" fill-opacity="0.1"/>
<path d="M1763.71 1022.98L1738.21 997.483L1598.99 1136.74L1624.48 1162.23L1636.82 1174.57L1662.32 1200.09L1674.68 1212.43L1700.11 1237.86L1700.17 1237.92L1763.53 1174.59L1738.03 1149.1L1700.17 1186.93L1687.84 1174.57L1725.67 1136.74L1700.17 1111.24L1662.32 1149.07L1649.98 1136.74L1763.71 1022.98Z" fill="white" fill-opacity="0.1"/>
<path d="M1801.57 1060.84L1776.07 1035.34L1738.21 1073.18L1712.72 1098.67L1738.21 1124.19L1750.76 1136.71L1775.98 1161.96L1776.25 1162.21L1814.11 1124.37L1826.27 1136.55L1712.54 1250.29L1738.03 1275.78L1877.08 1136.74L1877.01 1136.64L1877.19 1136.46L1839.61 1098.88L1814.25 1073.52L1814.11 1073.38L1776.25 1111.22L1763.73 1098.67L1801.57 1060.84Z" fill="white" fill-opacity="0.1"/>
<path d="M1915.48 871.207L1889.99 845.71L1750.76 984.963L1776.25 1010.46L1788.59 1022.8L1814.11 1048.32L1826.45 1060.66L1851.88 1086.08L1851.95 1086.15L1915.3 1022.82L1889.81 997.323L1851.95 1035.16L1839.61 1022.8L1877.44 984.963L1851.95 959.466L1814.11 997.3L1801.75 984.963L1915.48 871.207Z" fill="white" fill-opacity="0.1"/>
<path d="M1953.34 909.065L1927.85 883.568L1889.99 921.403L1864.49 946.9L1889.99 972.419L1902.53 984.94L1927.75 1010.19L1928.03 1010.44L1965.89 972.602L1978.04 984.78L1864.31 1098.51L1889.81 1124.01L2028.85 984.962L2028.78 984.871L2028.97 984.689L1991.38 947.105L1966.02 921.745L1965.89 921.608L1928.03 959.443L1915.51 946.9L1953.34 909.065Z" fill="white" fill-opacity="0.1"/>
<path d="M2067.26 719.434L2041.76 693.937L1902.53 833.19L1928.03 858.687L1940.37 871.025L1965.89 896.521L1978.22 908.882L2003.65 934.311L2003.72 934.379L2067.07 871.047L2041.58 845.528L2003.72 883.385L1991.38 871.025L2029.22 833.19L2003.72 807.693L1965.89 845.528L1953.52 833.19L2067.26 719.434Z" fill="white" fill-opacity="0.1"/>
<path d="M2067.07 1022.8L2041.58 997.3L1902.35 1136.55L1927.85 1162.05L1940.18 1174.39L1965.68 1199.88L1978.04 1212.25L2003.47 1237.67L2003.54 1237.74L2066.89 1174.41L2041.4 1148.89L2003.54 1186.75L1991.2 1174.39L2029.03 1136.55L2003.54 1111.06L1965.68 1148.89L1953.34 1136.55L2067.07 1022.8Z" fill="white" fill-opacity="0.1"/>
</g>
</g>
<defs>
<clipPath id="clip0_3_2">
<rect width="1920" height="1080" fill="white"/>
</clipPath>
<clipPath id="clip1_3_2">
<rect width="1920" height="1357.59" fill="white" transform="translate(0 -139)"/>
</clipPath>
</defs>
</svg>
